<svg id="Layer_1" data-name="Layer 1" xmlns="http://www.w3.org/2000/svg" xmlns:xlink="http://www.w3.org/1999/xlink" viewBox="0 0 728.96 188.99"><defs><style>.cls-1{fill:none;}.cls-2{fill:#fff;}.cls-3{clip-path:url(#clip-path);}.cls-4{fill:url(#linear-gradient);}.cls-5{fill:url(#linear-gradient-2);}.cls-6{fill:url(#linear-gradient-3);}.cls-7{fill:url(#linear-gradient-4);}</style><clipPath id="clip-path"><path class="cls-1" d="M132.37,77,109.31,63.66,64.82,38c-2.47-1.42-4.93-.56-4.93,2.42V145c0,2.23,1.76,3.2,3.91,2l45.51-26.28,23.06-13.32,22.17-12.79c2.6-1.51,2.35-3.57.16-4.75S132.37,77,132.37,77Z"/></clipPath><linearGradient id="linear-gradient" x1="88.46" y1="35.54" x2="88.46" y2="148.84" gradientUnits="userSpaceOnUse"><stop offset="0" stop-color="#257cb0"/><stop offset="0.21" stop-color="#3c8fb3"/><stop offset="0.74" stop-color="#73bdba"/><stop offset="1" stop-color="#89cfbd"/></linearGradient><linearGradient id="linear-gradient-2" x1="59.89" y1="63.66" x2="132.37" y2="63.66" gradientUnits="userSpaceOnUse"><stop offset="0" stop-color="#52c1ad"/><stop offset="1" stop-color="#dee89a"/></linearGradient><linearGradient id="linear-gradient-3" x1="96.13" y1="92.19" x2="96.13" y2="149.25" gradientUnits="userSpaceOnUse"><stop offset="0" stop-color="#ec413d"/><stop offset="0.19" stop-color="#d74352"/><stop offset="0.74" stop-color="#a04888"/><stop offset="1" stop-color="#8a4a9d"/></linearGradient><linearGradient id="linear-gradient-4" x1="137.88" y1="76.97" x2="137.88" y2="107.4" gradientUnits="userSpaceOnUse"><stop offset="0" stop-color="#f58879"/><stop offset="0.62" stop-color="#fbb276"/><stop offset="1" stop-color="#fec874"/></linearGradient></defs><title>1</title><path d="M714.24,156.34a23.07,23.07,0,0,1-23.06,23.06H35.59a23.07,23.07,0,0,1-23.06-23.06V31.81A23.06,23.06,0,0,1,35.59,8.75H691.18a23.06,23.06,0,0,1,23.06,23.06Z"/><path class="cls-2" d="M290.57,121.55a84.71,84.71,0,0,1-7.63,14.26c-5,7.56-12,17-20.62,17-7.7.07-9.68-5-20.13-4.95s-12.63,5-20.33,5c-8.67-.08-15.29-8.57-20.26-16.13-13.87-21.12-15.32-45.9-6.76-59.08,6.08-9.37,15.67-14.85,24.69-14.85,9.18,0,15,5,22.55,5,7.37,0,11.86-5,22.47-5,8,0,16.53,4.37,22.59,11.93C267.29,85.61,270.51,114,290.57,121.55Z"/><path class="cls-2" d="M256.5,54.37c3.85-4.95,6.79-11.95,5.72-19.09-6.3.43-13.67,4.44-18,9.67-3.9,4.74-7.13,11.78-5.87,18.62C245.25,63.78,252.37,59.67,256.5,54.37Z"/><g id="PLAY"><g class="cls-3"><polygon class="cls-4" points="59.89 35.54 59.89 92.19 59.89 148.84 117.03 92.19 59.89 35.54"/><polygon class="cls-5" points="132.37 76.97 109.31 63.66 59.89 35.13 59.89 35.54 117.03 92.19 132.37 76.97"/><polygon class="cls-6" points="59.89 148.84 59.89 149.25 109.31 120.72 132.37 107.41 117.03 92.19 59.89 148.84"/><polygon class="cls-7" points="132.37 76.97 117.03 92.19 132.37 107.41 158.73 92.19 132.37 76.97"/></g></g><path class="cls-2" d="M323.58,35.52h22V38H336V65.74h-2.85V38h-9.57Z"/><path class="cls-2" d="M359.25,53.06c.48-.05,1-.14,1.7-.25a6.6,6.6,0,0,0,1.62-.46,1.33,1.33,0,0,0,.77-1,6.08,6.08,0,0,0,.15-1.28,4.3,4.3,0,0,0-1.24-3.17q-1.23-1.23-4.17-1.23a11.08,11.08,0,0,0-2.39.23,5.21,5.21,0,0,0-1.91.79,4.39,4.39,0,0,0-1.35,1.51,6.37,6.37,0,0,0-.69,2.38h-2.56a7.79,7.79,0,0,1,.88-3.3A6.66,6.66,0,0,1,352,45.07a7.89,7.89,0,0,1,2.77-1.26,13.35,13.35,0,0,1,3.34-.4,12.69,12.69,0,0,1,3.08.36,6.92,6.92,0,0,1,2.52,1.13A5.17,5.17,0,0,1,365.4,47a7.41,7.41,0,0,1,.61,3.19V62c0,1,.17,1.6.52,1.87s1.06.2,2.12-.19v2l-.86.26a3.92,3.92,0,0,1-1.11.16,5.22,5.22,0,0,1-1.13-.12,2,2,0,0,1-1-.4,2.53,2.53,0,0,1-.61-.76,3,3,0,0,1-.31-1,6.57,6.57,0,0,1-.09-1.11,10.88,10.88,0,0,1-3.65,2.68,10.65,10.65,0,0,1-4.45.93,10.09,10.09,0,0,1-2.75-.38,6.61,6.61,0,0,1-2.32-1.18,5.7,5.7,0,0,1-1.6-1.95,6,6,0,0,1-.59-2.75q0-5.53,7.6-6.55Zm4.24,1.26a12.23,12.23,0,0,1-3.23.88c-1.09.14-2.18.25-3.27.34a9.25,9.25,0,0,0-4.52,1.3,3.74,3.74,0,0,0-1.61,3.32,3.55,3.55,0,0,0,.4,1.74,3.5,3.5,0,0,0,1.05,1.21,4.32,4.32,0,0,0,1.51.72,6.81,6.81,0,0,0,1.74.23,11.51,11.51,0,0,0,2.94-.38A8.17,8.17,0,0,0,361,62.53a5.94,5.94,0,0,0,1.78-2,5.64,5.64,0,0,0,.67-2.83ZM357.41,42a11.75,11.75,0,0,1,.14-2.36,3.55,3.55,0,0,1,1-1.9q.17-.16.3-.33a1.21,1.21,0,0,1,.33-.3c.45-.44.88-.89,1.3-1.35a2.09,2.09,0,0,0,.63-1.4,1.91,1.91,0,0,0-.69-1.49,2.88,2.88,0,0,0-1.95-.6,2.19,2.19,0,0,0-1.95,1,4,4,0,0,0-.65,2.31H354a5.82,5.82,0,0,1,.21-2.08,4.31,4.31,0,0,1,.93-1.63,4.55,4.55,0,0,1,1.51-1.07,4.89,4.89,0,0,1,1.93-.38A5,5,0,0,1,362,31.49a3.81,3.81,0,0,1,1.22,3,3.08,3.08,0,0,1-.63,2A13.16,13.16,0,0,1,361.18,38l-.86.8a4.06,4.06,0,0,0-.65.76,2.07,2.07,0,0,0-.29.92c0,.33,0,.69,0,1V42Z"/><path class="cls-2" d="M372.85,39.25V35.52h2.77v3.73ZM373,65.74V44h2.52V65.74Z"/><path class="cls-2" d="M414.57,44h2.22v5.5a4.2,4.2,0,0,1-.46,2A4.33,4.33,0,0,1,415.11,53a5.66,5.66,0,0,1-1.74.86,7.1,7.1,0,0,1-2,.29h-1.13V65.74h-2.52v-3c-.34.39-.72.79-1.14,1.21a8.4,8.4,0,0,1-1.44,1.16,8.64,8.64,0,0,1-1.91.88,8.07,8.07,0,0,1-2.52.36,9.66,9.66,0,0,1-3.65-.61A6.07,6.07,0,0,1,394.7,64a6.6,6.6,0,0,1-1.3-2.54,11.76,11.76,0,0,1-.4-3.17V44h2.51V58.27a6.34,6.34,0,0,0,1.31,4.3c.86,1,2.29,1.49,4.28,1.49a6.21,6.21,0,0,0,2.79-.61,5.91,5.91,0,0,0,2.08-1.7,8.34,8.34,0,0,0,1.3-2.6,11.58,11.58,0,0,0,.46-3.32V44h2.52v8.22h1.26c2,0,3.06-1,3.06-3Zm-15.74-2.1,4.66-5.84h3.23L401,41.9Z"/><path class="cls-2" d="M423.76,65.74h-2.52V44h2.52v3a16.05,16.05,0,0,1,3.13-2.6,7.18,7.18,0,0,1,3.88-1,10,10,0,0,1,3.74.69,6.41,6.41,0,0,1,2.89,2.41,5.5,5.5,0,0,1,1,2.42,23.63,23.63,0,0,1,.14,2.58V65.74H436V51.55a6.47,6.47,0,0,0-1.3-4.41c-.86-1-2.31-1.46-4.32-1.46a6.08,6.08,0,0,0-2.14.35,6.65,6.65,0,0,0-1.74.95,6.2,6.2,0,0,0-1.32,1.34,5.94,5.94,0,0,0-.84,1.59,7.94,7.94,0,0,0-.47,2c0,.64-.08,1.34-.08,2.1Z"/><path class="cls-2" d="M461.37,44h2.51V63.64a18.84,18.84,0,0,1-.44,4.17,8.91,8.91,0,0,1-1.57,3.51,7.78,7.78,0,0,1-3.11,2.41,12.25,12.25,0,0,1-5.07.9,12.57,12.57,0,0,1-4.12-.6,8.9,8.9,0,0,1-2.81-1.54,6.55,6.55,0,0,1-1.66-2,5.29,5.29,0,0,1-.61-2.08h2.69a5,5,0,0,0,.92,2,4.58,4.58,0,0,0,1.49,1.22,6.2,6.2,0,0,0,1.91.61,14.09,14.09,0,0,0,2.19.17,8.3,8.3,0,0,0,4.11-.88,6.07,6.07,0,0,0,2.35-2.31,9,9,0,0,0,1-3.23,26.58,26.58,0,0,0,.19-3.7,7.87,7.87,0,0,1-3.34,3,10.1,10.1,0,0,1-4.43,1,9.24,9.24,0,0,1-4.3-1,8.83,8.83,0,0,1-3-2.52,10.92,10.92,0,0,1-1.79-3.67,16.15,16.15,0,0,1-.58-4.36,18,18,0,0,1,.54-4.5,10.2,10.2,0,0,1,1.74-3.63,8.45,8.45,0,0,1,3.05-2.41,10.3,10.3,0,0,1,4.49-.88,8.47,8.47,0,0,1,2.14.29,10.63,10.63,0,0,1,2.12.84,8.68,8.68,0,0,1,1.89,1.39,7.36,7.36,0,0,1,1.4,1.89h.09Zm0,11a13.08,13.08,0,0,0-.49-3.67,9.11,9.11,0,0,0-1.4-2.94,6.8,6.8,0,0,0-2.31-2,6.71,6.71,0,0,0-3.15-.71,7.48,7.48,0,0,0-2.94.56,6.76,6.76,0,0,0-2.35,1.66,7.83,7.83,0,0,0-1.57,2.67,10.6,10.6,0,0,0-.57,3.63,14.43,14.43,0,0,0,.34,3.84,9.19,9.19,0,0,0,1.34,3.12,6.73,6.73,0,0,0,2.35,2.12,7,7,0,0,0,3.4.78,6.42,6.42,0,0,0,3.09-.74,6.92,6.92,0,0,0,2.3-2,8.92,8.92,0,0,0,1.45-2.89A11.92,11.92,0,0,0,461.37,55Z"/><path class="cls-2" d="M498.68,35.52h2.52V65.74h-2.52V61.92h-.09a6.83,6.83,0,0,1-1.4,1.91,8.63,8.63,0,0,1-1.89,1.36,10.06,10.06,0,0,1-2.12.84,8.06,8.06,0,0,1-2.14.3,10.33,10.33,0,0,1-4.49-.89,8.23,8.23,0,0,1-3-2.41,9.9,9.9,0,0,1-1.75-3.63,18,18,0,0,1-.54-4.49,15.84,15.84,0,0,1,.59-4.37,10.81,10.81,0,0,1,1.78-3.67,8.83,8.83,0,0,1,3-2.52,9.24,9.24,0,0,1,4.3-.94,10,10,0,0,1,4.43,1,7.79,7.79,0,0,1,3.34,3Zm0,19.26a11.8,11.8,0,0,0-.51-3.5,9,9,0,0,0-1.44-2.9,7.18,7.18,0,0,0-2.31-2,6.41,6.41,0,0,0-3.09-.73,7,7,0,0,0-3.4.77,6.83,6.83,0,0,0-2.35,2.12,9.33,9.33,0,0,0-1.34,3.13,14.43,14.43,0,0,0-.34,3.84,10.64,10.64,0,0,0,.57,3.63A7.69,7.69,0,0,0,486,61.83a6.8,6.8,0,0,0,2.36,1.66,7.4,7.4,0,0,0,2.93.57,6.71,6.71,0,0,0,3.15-.72,6.59,6.59,0,0,0,2.31-2,9.17,9.17,0,0,0,1.41-2.93A13.53,13.53,0,0,0,498.68,54.78Z"/><path class="cls-2" d="M522.27,44h2.51V65.74h-2.51v-3c-.34.39-.72.79-1.14,1.21a8.48,8.48,0,0,1-1.45,1.16,8.23,8.23,0,0,1-1.91.88,8,8,0,0,1-2.51.36,9.72,9.72,0,0,1-3.66-.61,6.15,6.15,0,0,1-2.37-1.7,6.88,6.88,0,0,1-1.3-2.54,12.17,12.17,0,0,1-.4-3.17V44h2.52V58.27a6.39,6.39,0,0,0,1.3,4.3,5.44,5.44,0,0,0,4.28,1.49,6.15,6.15,0,0,0,2.79-.61,5.82,5.82,0,0,0,2.08-1.7,7.93,7.93,0,0,0,1.3-2.6,11.24,11.24,0,0,0,.47-3.32Zm-7.48,24.38h2.73v4.28h-2.73Z"/><path class="cls-2" d="M533.39,65.74h-2.52V44h2.52v3a16.31,16.31,0,0,1,3.12-2.6,7.24,7.24,0,0,1,3.89-1,9.94,9.94,0,0,1,3.73.69,6.43,6.43,0,0,1,2.9,2.41,5.48,5.48,0,0,1,.94,2.42,21.32,21.32,0,0,1,.15,2.58V65.74H545.6V51.55a6.47,6.47,0,0,0-1.3-4.41c-.87-1-2.31-1.46-4.32-1.46a6,6,0,0,0-2.14.35,6.56,6.56,0,0,0-1.75.95,6.7,6.7,0,0,0-1.32,1.34,6.57,6.57,0,0,0-.84,1.59,8.34,8.34,0,0,0-.46,2c-.05.64-.08,1.34-.08,2.1Z"/><path class="cls-2" d="M571,44h2.52V63.64a18.84,18.84,0,0,1-.44,4.17,9.05,9.05,0,0,1-1.57,3.51,7.85,7.85,0,0,1-3.11,2.41,12.3,12.3,0,0,1-5.08.9,12.55,12.55,0,0,1-4.11-.6,8.9,8.9,0,0,1-2.81-1.54,6.55,6.55,0,0,1-1.66-2,5.12,5.12,0,0,1-.61-2.08h2.69a4.83,4.83,0,0,0,.92,2,4.58,4.58,0,0,0,1.49,1.22,6.11,6.11,0,0,0,1.91.61,14.05,14.05,0,0,0,2.18.17,8.31,8.31,0,0,0,4.12-.88,6.07,6.07,0,0,0,2.35-2.31,8.81,8.81,0,0,0,1-3.23,23.83,23.83,0,0,0,.19-3.7,7.79,7.79,0,0,1-3.33,3,10.13,10.13,0,0,1-4.43,1,9.21,9.21,0,0,1-4.3-1,8.74,8.74,0,0,1-3-2.52,10.74,10.74,0,0,1-1.79-3.67,16.16,16.16,0,0,1-.59-4.36,18,18,0,0,1,.55-4.5,9.88,9.88,0,0,1,1.74-3.63,8.42,8.42,0,0,1,3-2.41,10.35,10.35,0,0,1,4.5-.88,8.53,8.53,0,0,1,2.14.29,10.88,10.88,0,0,1,2.12.84,8.39,8.39,0,0,1,1.88,1.39,7.18,7.18,0,0,1,1.41,1.89H571Zm0,11a13.46,13.46,0,0,0-.48-3.67,9.11,9.11,0,0,0-1.4-2.94,6.58,6.58,0,0,0-5.46-2.66,7.44,7.44,0,0,0-2.94.56,6.76,6.76,0,0,0-2.35,1.66,7.67,7.67,0,0,0-1.57,2.67,10.6,10.6,0,0,0-.57,3.63,14,14,0,0,0,.34,3.84,8.81,8.81,0,0,0,1.34,3.12,6.64,6.64,0,0,0,2.35,2.12,7,7,0,0,0,3.4.78,6.38,6.38,0,0,0,3.08-.74,7.06,7.06,0,0,0,2.31-2,9.12,9.12,0,0,0,1.45-2.89A11.92,11.92,0,0,0,571,55Z"/><path class="cls-2" d="M599.16,65.82a12.34,12.34,0,0,0-1.22.3,6.71,6.71,0,0,1-1.68.21,4,4,0,0,1-2.88-1,4.64,4.64,0,0,1-1-3.38V46.09h-3.07V44h3.07V38h2.52v6H599v2.09h-4.07V61c0,.53,0,1,0,1.38a2.33,2.33,0,0,0,.25,1,1.18,1.18,0,0,0,.65.55,3.65,3.65,0,0,0,1.24.17,6.15,6.15,0,0,0,1-.09,9,9,0,0,0,1-.21Z"/><path class="cls-2" d="M605.83,65.74h-2.52V44h2.52v4.07h.08a7.22,7.22,0,0,1,2.71-3.63,8.22,8.22,0,0,1,4.39-1v2.73a7.28,7.28,0,0,0-3.53.67,5.82,5.82,0,0,0-2.2,1.93,7.58,7.58,0,0,0-1.14,2.87,18.59,18.59,0,0,0-.31,3.47Z"/><path class="cls-2" d="M618.71,55.45a12.09,12.09,0,0,0,.46,3.34,8.15,8.15,0,0,0,1.37,2.73,6.64,6.64,0,0,0,2.29,1.85,7,7,0,0,0,3.19.69,7,7,0,0,0,4.23-1.3,6.3,6.3,0,0,0,2.36-3.7h2.81a13.78,13.78,0,0,1-1.22,2.88,8.78,8.78,0,0,1-1.89,2.31,8,8,0,0,1-2.68,1.53,11,11,0,0,1-3.61.55,10.45,10.45,0,0,1-4.49-.89A8.39,8.39,0,0,1,618.42,63a10.12,10.12,0,0,1-1.8-3.61A16,16,0,0,1,616,55a14.31,14.31,0,0,1,.69-4.49,11.45,11.45,0,0,1,2-3.67,9.24,9.24,0,0,1,3.13-2.48,9.46,9.46,0,0,1,4.2-.9,8.69,8.69,0,0,1,7.05,3.08q2.55,3.09,2.52,9Zm14.19-2.09a10,10,0,0,0-.44-3,7.05,7.05,0,0,0-1.3-2.44A6.45,6.45,0,0,0,629,46.28a7.08,7.08,0,0,0-3-.6,6.61,6.61,0,0,0-3,.62A6.85,6.85,0,0,0,620.88,48a8.26,8.26,0,0,0-1.45,2.44,11.3,11.3,0,0,0-.72,2.94ZM622.58,41.65h-2.73l4.78-5.84h2.81l4.75,5.84h-2.73L626,37.37Z"/><path class="cls-2" d="M643,65.74H640.5V44H643v3a16.05,16.05,0,0,1,3.13-2.6,7.21,7.21,0,0,1,3.88-1,10,10,0,0,1,3.74.69,6.43,6.43,0,0,1,2.9,2.41,5.48,5.48,0,0,1,.94,2.42,21.32,21.32,0,0,1,.15,2.58V65.74h-2.52V51.55a6.52,6.52,0,0,0-1.3-4.41c-.87-1-2.31-1.46-4.33-1.46a6.12,6.12,0,0,0-2.14.35,6.65,6.65,0,0,0-1.74.95,6.2,6.2,0,0,0-1.32,1.34,6.57,6.57,0,0,0-.84,1.59,7.9,7.9,0,0,0-.46,2q-.09,1-.09,2.1Z"/><path class="cls-2" d="M342.65,99.36h11.91l17.82,50.38H361l-3.33-10.36H339.09l-3.42,10.36h-11ZM342,130.7h12.9l-6.36-19.83Z"/><path class="cls-2" d="M409.33,116.48q4.56,4.81,4.56,14.15,0,9.84-4.45,15A14.47,14.47,0,0,1,398,150.8a12.05,12.05,0,0,1-7.43-2.22,14.69,14.69,0,0,1-3.16-3.59V164.4h-9.64V112.48h9.33V118a15.84,15.84,0,0,1,3.37-3.82,12.41,12.41,0,0,1,7.78-2.5A14.71,14.71,0,0,1,409.33,116.48Zm-7.47,7c-1.33-2.21-3.47-3.32-6.44-3.32a7.34,7.34,0,0,0-7.36,5,18.85,18.85,0,0,0-1,6.76q0,6.49,3.48,9.13a8,8,0,0,0,4.91,1.54,7.13,7.13,0,0,0,6.27-3.15,16.51,16.51,0,0,0,.17-16Z"/><path class="cls-2" d="M452.09,116.48q4.56,4.81,4.56,14.15,0,9.84-4.45,15a14.47,14.47,0,0,1-11.48,5.16,12.05,12.05,0,0,1-7.43-2.22,14.49,14.49,0,0,1-3.16-3.59V164.4h-9.64V112.48h9.33V118a15.84,15.84,0,0,1,3.37-3.82,12.41,12.41,0,0,1,7.78-2.5A14.73,14.73,0,0,1,452.09,116.48Zm-7.47,7c-1.33-2.21-3.47-3.32-6.44-3.32a7.34,7.34,0,0,0-7.36,5,18.85,18.85,0,0,0-1,6.76q0,6.49,3.48,9.13a8,8,0,0,0,4.91,1.54,7.11,7.11,0,0,0,6.26-3.15,16.47,16.47,0,0,0,.18-16Z"/><path class="cls-2" d="M491.34,134.19a10.3,10.3,0,0,0,1.92,5.16q2.63,3.1,9,3.11a19.49,19.49,0,0,0,6.18-.82q4.5-1.57,4.5-5.85a4.3,4.3,0,0,0-2.2-3.86,23.84,23.84,0,0,0-7-2.36l-5.45-1.2q-8-1.77-11.05-3.86-5.1-3.48-5.09-10.9a14.5,14.5,0,0,1,5-11.25q5-4.47,14.63-4.47a22.42,22.42,0,0,1,13.76,4.22q5.68,4.22,6,12.25H511.34a7.21,7.21,0,0,0-4.07-6.46,14,14,0,0,0-6.27-1.26,11.9,11.9,0,0,0-6.66,1.64,5.2,5.2,0,0,0-2.48,4.58,4.31,4.31,0,0,0,2.45,4A30.64,30.64,0,0,0,501,119l8.84,2.08a22.46,22.46,0,0,1,8.72,3.66q4.5,3.56,4.5,10.29a14.44,14.44,0,0,1-5.34,11.46Q512.4,151,502.64,151q-9.94,0-15.64-4.5t-5.71-12.35Z"/><path class="cls-2" d="M525.83,119.76v-6.94H531V102.43h9.64v10.39h6v6.94h-6v19.69c0,1.53.19,2.48.58,2.85s1.57.57,3.55.57l.94,0,1,0v7.28l-4.61.17q-6.9.24-9.43-2.39c-1.1-1.12-1.64-2.84-1.64-5.16V119.76Z"/><path class="cls-2" d="M584,145.18Q579.32,151,569.72,151t-14.32-5.82a23.11,23.11,0,0,1,0-28q4.71-5.91,14.32-5.9t14.32,5.9a23.11,23.11,0,0,1,0,28Zm-7.79-5.38c1.52-2,2.29-4.91,2.29-8.64s-.77-6.6-2.29-8.62a8.67,8.67,0,0,0-13.15,0q-2.29,3-2.3,8.62t2.3,8.64a8.65,8.65,0,0,0,13.15,0Z"/><path class="cls-2" d="M616.42,111.61l.84,0v10c-.61-.07-1.16-.11-1.64-.14l-1.16,0q-5.88,0-7.9,3.83a14.93,14.93,0,0,0-1.12,6.63v17.81h-9.81V112.48h9.29V119a20.82,20.82,0,0,1,3.93-5.1,10.76,10.76,0,0,1,7.11-2.29Z"/><path class="cls-2" d="M647.25,113.24a15.08,15.08,0,0,1,6.43,5.51,18.2,18.2,0,0,1,3,7.7,46.42,46.42,0,0,1,.32,7.39H629.84q.23,5.61,3.9,7.87a9.89,9.89,0,0,0,5.37,1.4,7.54,7.54,0,0,0,7.41-4.28h10a12.23,12.23,0,0,1-3.62,6.74q-5,5.43-14,5.43a20.37,20.37,0,0,1-13.13-4.58Q620,141.83,620,131.5q0-9.68,5.13-14.84t13.33-5.17A21.12,21.12,0,0,1,647.25,113.24Zm-14.58,8.41a10.14,10.14,0,0,0-2.59,5.77h16.78a8.15,8.15,0,0,0-2.59-5.89,8.55,8.55,0,0,0-5.78-2A7.74,7.74,0,0,0,632.67,121.65Z"/></svg>